<svg width="40" height="40" viewBox="0 0 40 40" fill="none" xmlns="http://www.w3.org/2000/svg">
<path d="M39.9836 20.095C39.9836 24.9876 39.9916 29.8782 39.9796 34.7708C39.9736 37.3241 38.7779 39.1056 36.6105 39.7414C35.9987 39.9213 35.3309 39.9853 34.6891 39.9873C24.9059 40.0013 15.1207 40.0033 5.33747 39.9953C1.91245 39.9913 0.00499857 38.0639 0.00299914 34.6289C-0.000999714 24.8757 -0.000999714 15.1224 0.00299914 5.37123C0.00499857 1.93622 1.91645 0.0107676 5.34347 0.00676877C15.1267 -0.00122894 24.9119 -0.00322837 34.6951 0.00676877C38.0581 0.0107676 39.9756 1.94421 39.9836 5.32525C39.9935 10.2478 39.9856 15.1704 39.9856 20.095H39.9836ZM7.71479 13.4949V26.6651C10.0561 26.6651 12.3135 26.7111 14.5688 26.6391C15.3526 26.6132 16.1624 26.3872 16.8962 26.0893C18.3697 25.4915 19.0655 24.3058 19.0435 22.7283C19.0216 21.1987 18.2598 20.117 16.9721 19.5332C17.44 18.9174 18.0298 18.4035 18.2798 17.7597C19.0535 15.7723 17.8199 13.7088 15.5745 13.5389C12.9973 13.345 10.394 13.4949 7.71479 13.4949ZM32.2578 21.9105C32.5917 18.8634 30.8722 16.546 28.1949 16.2761C24.562 15.9102 22.2226 17.6397 21.9347 21.0927C21.7328 23.506 23.2264 26.3372 26.8113 26.6571C29.3106 26.8811 31.8199 25.3055 31.9898 23.3761C31.8359 23.3681 31.6819 23.3541 31.528 23.3541C30.6302 23.3601 29.7945 23.2701 29.0247 24.0759C28.2989 24.8357 27.2112 24.7817 26.2455 24.3198C25.2758 23.8579 24.9279 23.0062 24.8539 21.9085H32.2598L32.2578 21.9105ZM30.3743 13.4389H23.8922V15.1704H30.3743V13.4389Z" fill="#6BA7C9"/>
<path d="M10.556 20.7408C11.8176 20.7408 13.0433 20.6808 14.2589 20.7588C15.2726 20.8248 15.8944 21.5905 15.8944 22.5483C15.8944 23.45 15.3026 24.1758 14.2869 24.2518C13.0692 24.3438 11.8396 24.2738 10.556 24.2738V20.7408Z" fill="#6BA7C9"/>
<path d="M10.572 15.7184C11.6956 15.7184 12.7493 15.6604 13.793 15.7344C14.8147 15.8064 15.3726 16.4102 15.3466 17.228C15.3226 18.0497 14.7268 18.6675 13.763 18.7215C12.7193 18.7795 11.6716 18.7355 10.572 18.7355V15.7184Z" fill="#6BA7C9"/>
<path d="M24.8779 20.305C25.2838 18.7374 26.1735 18.0376 27.5131 18.1456C28.5048 18.2255 29.3006 19.1093 29.4226 20.305H24.8779Z" fill="#6BA7C9"/>
</svg>
