<svg width="40" height="40" viewBox="0 0 40 40" fill="none" xmlns="http://www.w3.org/2000/svg">
<path d="M1.20745e-05 19.944C0.012012 8.89602 9.01399 -0.0219593 20.13 4.06166e-05C31.0999 0.0220406 40.0199 9.04802 39.9999 20.104C39.9799 31.078 30.9519 40.024 19.92 40C8.92199 39.976 -0.0119879 30.982 1.20745e-05 19.944ZM23.278 22.918C17.332 24.694 13.408 28.628 9.92599 33.11C9.99599 33.232 10.004 33.272 10.03 33.29C14.932 36.9 20.264 37.54 25.954 35.552C26.18 35.474 26.426 34.978 26.392 34.71C26.262 33.682 26.09 32.65 25.812 31.654C25.01 28.77 24.148 25.9 23.28 22.916L23.278 22.918ZM20.68 17.468C14.98 18.984 9.24199 19.762 3.334 19.818C3.362 24.032 4.688 27.652 7.396 30.854C11.188 25.814 15.622 21.752 21.8 19.812C21.402 18.978 21.052 18.244 20.68 17.466V17.468ZM13.024 4.82603C8.01999 7.38402 4.986 11.142 3.704 16.47C8.99199 16.36 14.042 15.754 19.284 14.37C17.15 11.116 15.114 8.01402 13.024 4.82603ZM22.474 13.294C25.25 12.7 29.7379 9.60002 30.8379 7.49002C27.25 3.86403 20.318 2.41403 16.438 3.86003C18.44 6.99002 20.452 10.134 22.474 13.294ZM33.2199 10.04C30.7039 13.078 27.5 15.006 23.94 16.472C24.284 17.208 24.626 17.844 24.88 18.516C25.09 19.072 25.416 19.238 25.988 19.16C26.74 19.056 27.506 18.95 28.2619 18.972C31.0399 19.052 33.8179 19.184 36.5999 19.298C36.7599 16.622 35.1719 12.146 33.2219 10.042L33.2199 10.04ZM26.718 22.386C27.754 26.176 28.7459 29.814 29.7579 33.516C33.3339 30.854 35.5439 27.378 36.3839 22.924C33.1239 22.102 29.9359 22.108 26.718 22.386Z" fill="#6BA7C9"/>
</svg>
