<svg width="41" height="40" viewBox="0 0 41 40" fill="none" xmlns="http://www.w3.org/2000/svg">
<path d="M24.1628 28.8218C25.4512 28.5099 26.6317 28.3081 27.755 27.935C30.8742 26.9034 33.184 25.0319 33.8181 21.6109C34.2523 19.2603 33.6631 17.134 32.2136 15.2563C31.8609 14.7996 31.7896 14.4184 31.8752 13.8272C32.0668 12.498 32.1851 11.132 32.1035 9.79668C32.0301 8.59589 31.6489 8.44095 30.4624 8.60404C28.9558 8.80995 27.7427 9.56427 26.6092 10.5286C26.3483 10.7508 25.8427 10.8874 25.5185 10.8018C22.6664 10.0291 19.8244 9.98832 16.9866 10.8221C16.4912 10.9669 16.1629 10.9261 15.7715 10.5306C14.6686 9.41748 13.3128 8.78957 11.7471 8.54492C10.9806 8.42464 10.479 8.68967 10.4546 9.36448C10.4016 10.8344 10.53 12.3104 10.5361 13.7844C10.5361 14.237 10.5178 14.7915 10.2731 15.1299C6.80938 19.9596 8.49743 25.6639 14.0794 27.7209C15.4045 28.2082 16.8133 28.4671 18.0059 28.7851C17.3515 29.7311 16.6543 30.7525 15.9387 31.7637C15.8347 31.9104 15.6594 32.1062 15.5126 32.1102C14.2588 32.151 12.9866 32.2856 11.7593 32.1102C11.1763 32.0267 10.6768 31.3355 10.1488 30.9094C9.38426 30.2917 8.65033 29.6332 7.84912 29.0685C7.65137 28.9299 7.24567 29.0868 6.93578 29.1072C7.06422 29.3702 7.17839 29.6434 7.32517 29.8962C7.86747 30.8299 8.54635 31.7045 8.94798 32.6933C9.88374 34.997 10.7848 35.6841 13.2721 35.6882C13.8959 35.6882 14.5197 35.6882 15.272 35.6882V40C8.60344 38.7686 -0.0386055 31.5333 0.000129752 20.3796C0.0368263 9.9557 8.00406 1.05474 18.1751 0.0965548C28.9456 -0.918717 38.5458 6.17188 40.4296 16.6895C42.4642 28.0471 35.1575 36.893 27.1576 39.5372C27.1576 38.2223 27.2025 36.9542 27.1434 35.6922C27.0944 34.6423 27.0333 33.572 26.7805 32.5588C26.4033 31.044 25.4879 29.8228 24.1628 28.8218Z" fill="#6BA7C9"/>
</svg>
