<svg width="50" height="50" viewBox="0 0 50 50" fill="none" xmlns="http://www.w3.org/2000/svg">
<path d="M40.768 5.70048C41.9612 4.47453 43.1123 3.25793 44.3008 2.0811C45.5502 0.845789 47.0849 0.761563 48.1237 1.81907C49.1602 2.87423 49.0549 4.3903 47.8055 5.64433C42.1063 11.36 36.3999 17.071 30.6772 22.7633C30.0923 23.3458 29.7952 23.891 29.8467 24.7824C30.0128 27.6554 27.8416 29.9178 25.0201 29.9599C22.119 30.0044 19.9033 27.7771 19.9571 24.8666C20.0086 22.0403 22.2663 19.9066 25.1534 20.0657C25.977 20.1101 26.5291 19.8949 27.0883 19.3123C28.0007 18.3601 29.0068 17.4991 30.0011 16.575C26.3256 13.9359 20.6052 14.8203 17.4982 18.3344C14.6883 21.5116 14.1362 26.1136 16.1249 29.7704C18.1861 33.5582 22.2523 35.5024 26.6835 34.8146C30.6398 34.2016 33.8895 30.9215 34.7201 26.7032C35.0804 24.8736 36.1402 23.898 37.551 24.0992C39.025 24.3074 39.8953 25.4796 39.7222 27.0284C39.0554 33.0201 33.9129 38.5276 27.8931 39.6997C18.5159 41.5246 9.85939 34.4262 9.96233 24.8876C10.0232 19.1579 12.6622 14.7641 17.6175 11.9589C22.5541 9.16311 27.5936 9.36899 32.5302 12.1391C32.8344 12.3099 33.1245 12.5088 33.424 12.6889C33.4497 12.7053 33.4965 12.6889 33.4661 12.6889C34.6429 11.5027 35.787 10.3493 36.9755 9.15141C34.079 6.88199 30.7287 5.53905 27.0228 5.13898C17.2292 4.08615 8.21932 10.251 5.65277 19.7054C2.17143 32.5288 11.8504 45.0574 25.1277 44.917C38.4962 44.7743 47.864 32.0258 44.0294 19.2117C43.8329 18.5543 43.6504 17.836 43.7182 17.1716C43.8305 16.093 44.9302 15.2274 45.997 15.1619C47.1341 15.094 48.105 15.7117 48.5121 16.8651C49.469 19.572 49.9276 22.3749 49.8831 25.2386C49.7193 35.5984 43.5124 44.538 33.9129 48.3095C19.3465 54.0439 2.78206 44.5801 0.323132 29.1223C-1.80591 15.7234 6.79216 3.15265 20.032 0.513564C27.0625 -0.887863 33.5643 0.59779 39.4391 4.7389C39.8485 5.02667 40.2509 5.32614 40.768 5.70048Z" fill="#6BA7C9"/>
</svg>
