<svg width="32" height="23" viewBox="0 0 32 23" fill="none" xmlns="http://www.w3.org/2000/svg">
<path d="M12.4 3.8C12.4 3.8 12.144 4.216 11.632 5.048C11.12 5.816 10.512 6.808 9.808 8.024C9.104 9.176 8.496 10.328 7.984 11.48C8.368 11.48 8.976 11.832 9.808 12.536C10.704 13.24 11.504 14.04 12.208 14.936C12.976 15.768 13.36 16.472 13.36 17.048C13.36 18.84 12.752 20.28 11.536 21.368C10.384 22.456 8.912 23 7.12 23C5.392 23 3.856 22.36 2.512 21.08C1.232 19.8 0.592 18.264 0.592 16.472C0.592 14.616 1.008 12.792 1.84 11C2.672 9.144 3.632 7.448 4.72 5.912C5.872 4.376 6.864 3.16 7.696 2.264C8.592 1.368 9.04 0.919998 9.04 0.919998L12.4 3.8ZM30.16 3.8C30.16 3.8 29.904 4.216 29.392 5.048C28.88 5.816 28.272 6.808 27.568 8.024C26.864 9.176 26.256 10.328 25.744 11.48C26.128 11.48 26.736 11.832 27.568 12.536C28.464 13.24 29.264 14.04 29.968 14.936C30.736 15.768 31.12 16.472 31.12 17.048C31.12 18.84 30.512 20.28 29.296 21.368C28.144 22.456 26.672 23 24.88 23C23.152 23 21.616 22.36 20.272 21.08C18.992 19.8 18.352 18.264 18.352 16.472C18.352 14.616 18.768 12.792 19.6 11C20.432 9.144 21.392 7.448 22.48 5.912C23.632 4.376 24.624 3.16 25.456 2.264C26.352 1.368 26.8 0.919998 26.8 0.919998L30.16 3.8Z" fill="#6BA7C9"/>
</svg>
