<svg width="58" height="52" viewBox="0 0 58 52" fill="none" xmlns="http://www.w3.org/2000/svg">
<path d="M29.3258 15.7565C36.1691 15.8888 42.0927 18.4615 47.3794 22.6603C51.4077 25.861 54.6219 29.7637 57.116 34.2608C57.7104 35.3285 57.6095 36.0462 56.8357 36.4948C56.0753 36.9344 55.3777 36.6518 54.7721 35.5931C51.6298 30.1069 47.4758 25.5784 42.0367 22.3149C32.6992 16.712 23.5839 17.3826 14.7332 23.4677C10.3235 26.5002 6.83127 30.4007 4.12178 35.0077C3.89524 35.3935 3.69113 35.7995 3.41076 36.1449C2.91956 36.7528 2.2691 36.8739 1.62089 36.4522C1.01753 36.0619 0.824639 35.4608 1.1723 34.7924C1.53341 34.0971 1.91471 33.4108 2.3319 32.7491C6.995 25.3428 13.1542 19.722 21.6213 17.0372C24.0841 16.2566 25.6725 16.0278 28.5883 15.7565L29.3258 15.7587V15.7565Z" fill="#6BA7C9" stroke="#6BA7C9" stroke-miterlimit="10"/>
<path d="M29.8036 51C22.7675 50.8026 17.5302 48.0976 13.3179 43.4794C11.3733 41.3463 9.81665 38.8522 8.15462 36.4746C7.45706 35.4743 7.60285 34.6758 8.33406 34.2249C9.13255 33.7337 9.85029 34.0141 10.4873 35.1221C12.8626 39.2559 15.7941 42.8917 19.892 45.4442C26.6007 49.6228 34.4779 48.9993 40.8098 43.8427C43.5978 41.5729 45.7824 38.8051 47.6082 35.7322C47.8168 35.3801 47.9939 35.0055 48.2317 34.6713C48.705 34.0029 49.3375 33.7607 50.0709 34.2182C50.7752 34.6578 50.9928 35.333 50.5487 36.0507C49.5304 37.6993 48.5569 39.3905 47.3839 40.9246C43.849 45.5496 39.4819 49.0464 33.6839 50.4078C32.2036 50.7555 30.4634 50.8656 29.5976 50.9935L29.8036 51Z" fill="#6BA7C9" stroke="#6BA7C9" stroke-miterlimit="10"/>
<path d="M35.9985 33.2403C36.0097 36.9883 32.9952 40.0118 29.2494 40.005C25.5575 39.9983 22.5542 37.0017 22.543 33.3098C22.5318 29.5574 25.5418 26.5406 29.292 26.5473C32.9884 26.554 35.9873 29.5461 35.9985 33.238V33.2403Z" fill="#6BA7C9" stroke="#6BA7C9" stroke-miterlimit="10"/>
<path d="M30.6176 6.37197C30.6176 7.63924 30.6131 8.90875 30.6176 10.176C30.6221 11.1001 30.2251 11.7259 29.2584 11.7192C28.2872 11.7124 27.9216 11.0687 27.9238 10.1513C27.9306 7.61456 27.9306 5.07778 27.9238 2.54325C27.9238 1.61915 28.3141 0.991123 29.2831 1.00009C30.2498 1.00907 30.6288 1.64607 30.6199 2.56792C30.6087 3.83519 30.6176 5.1047 30.6176 6.37197Z" fill="#6BA7C9" stroke="#6BA7C9" stroke-miterlimit="10"/>
<path d="M18.0463 3.64452C18.2392 3.83517 18.6066 4.13349 18.8017 4.5731C19.7483 6.71961 20.6118 8.902 21.5045 11.0709C21.8185 11.8335 21.5381 12.4324 20.8675 12.7599C20.1856 13.0918 19.45 12.9124 19.1382 12.2081C18.1333 9.92703 17.1666 7.62576 16.2852 5.29309C15.951 4.40488 16.6463 3.62882 17.9023 3.64452H18.0463Z" fill="#6BA7C9" stroke="#6BA7C9" stroke-miterlimit="10"/>
<path d="M40.7851 3.60193C42.0053 3.62884 42.6199 4.3892 42.2655 5.329C41.3997 7.6213 40.4442 9.87995 39.4573 12.1207C39.1568 12.8048 38.4928 13.0762 37.7661 12.7352C37.0641 12.4055 36.7994 11.7909 37.091 11.062C37.9859 8.81904 38.8854 6.57833 39.8633 4.37126C40.036 3.97874 40.5922 3.75669 40.7851 3.60193Z" fill="#6BA7C9" stroke="#6BA7C9" stroke-miterlimit="10"/>
<path d="M12.683 15.4089C12.6718 16.6044 11.5302 17.3199 10.716 16.6941C9.59898 15.8373 8.53806 14.8795 7.605 13.8298C7.34257 13.5337 7.40537 12.594 7.68799 12.2665C7.96611 11.9435 8.91039 11.7484 9.21544 11.9727C10.3773 12.8227 11.409 13.8522 12.4632 14.8459C12.6292 15.0029 12.6494 15.3124 12.683 15.4089Z" fill="#6BA7C9" stroke="#6BA7C9" stroke-miterlimit="10"/>
<path d="M51.0179 13.2241C50.9685 13.6188 50.1207 12.6633 50.7573 13.5045C49.6717 14.6148 48.6063 15.752 47.431 16.7613C47.2448 16.9206 46.3409 16.6133 46.139 16.2903C45.9013 15.909 45.8452 15.106 46.0942 14.7853C46.868 13.7916 47.7831 12.8877 48.7386 12.0623C49.0212 11.8178 49.6851 11.7954 50.0619 11.9479C50.4343 12.0982 50.6653 12.5984 50.8537 12.8227L51.0179 13.2241Z" fill="#6BA7C9" stroke="#6BA7C9" stroke-miterlimit="10"/>
</svg>
